<svg xmlns="http://www.w3.org/2000/svg" width="30" height="40" viewBox="0 0 30 40"><g transform="translate(-5563 -765)"><path d="M194.833,16.3V0H176.5V16.3a12.55,12.55,0,0,0-5.833,10.37c0,7.364,6.716,13.333,15,13.333s15-5.97,15-13.333a12.549,12.549,0,0,0-5.833-10.37Zm-15-13.333H191.5V14.074a23.339,23.339,0,0,0-11.667,0Zm5.833,34.074c-6.443,0-11.667-4.643-11.667-10.37s5.223-10.37,11.667-10.37,11.667,4.643,11.667,10.37S192.106,37.031,185.666,37.037Zm2.5-12.593-2.5-5.926-2.5,5.926h-5.833l5,2.963-2.5,5.926,5.833-3.7,5.833,3.7L189,27.407l5-2.963Z" transform="translate(5392.334 765)" fill="#329f4f"/></g></svg>