<svg xmlns="http://www.w3.org/2000/svg" width="30" height="40" viewBox="0 0 30 40"><g transform="translate(-4963 -1123)" opacity="0.61"><path d="M151.814,23.713h-3.331l-1.03-3.147a.411.411,0,0,0-.75,0l-1.029,3.147h-3.332a.4.4,0,0,0-.374.275.394.394,0,0,0,.143.439l2.692,1.939-1.028,3.153a.386.386,0,0,0,.145.437.394.394,0,0,0,.463,0l2.694-1.939,2.7,1.939a.4.4,0,0,0,.556-.086.384.384,0,0,0,.051-.356l-1.028-3.153,2.693-1.939a.394.394,0,0,0,.143-.439.4.4,0,0,0-.375-.274ZM162.076,1.691a.156.156,0,0,1-.027-.083A1.574,1.574,0,0,0,160.47.039.147.147,0,0,1,160.354,0h-26.6a.142.142,0,0,1-.113.039,1.569,1.569,0,0,0-1.565,1.51V7.736l5.556,5.847A14.785,14.785,0,0,0,132.938,30.1a15.044,15.044,0,0,0,28.276,0,14.785,14.785,0,0,0-4.7-16.515l5.557-5.847ZM152.208,3.14v8.029a14.829,14.829,0,0,0-10.262,0V3.144h10.262Zm-16.972,0h4.342v7.919l-4.342-4.57V3.14Zm23.683,22.026a11.842,11.842,0,1,1-11.843-11.772,11.79,11.79,0,0,1,11.843,11.772Zm0-18.676-4.342,4.57V3.14h4.342V6.49Zm0,0" transform="translate(4830.924 1123)" fill="#5bb272"/></g></svg>