<svg xmlns="http://www.w3.org/2000/svg" width="35" height="40" viewBox="0 0 35 40"><g transform="translate(-168.103 -65.108)"><path d="M185.6,105.108c-8.823,0-16-6.346-16-14.146a12.968,12.968,0,0,1,3.01-8.244l.28-.343L168.1,76.791V65.108h35V76.791l-4.788,5.584.28.343a12.968,12.968,0,0,1,3.01,8.244C201.6,98.762,194.426,105.108,185.6,105.108Zm0-26.747c-7.859,0-14.253,5.653-14.253,12.6s6.394,12.6,14.253,12.6,14.253-5.652,14.253-12.6S193.462,78.361,185.6,78.361Zm0-1.547a17.1,17.1,0,0,1,11.029,3.912l.524.441,4.2-4.9V66.655h-9.045v7.508a.881.881,0,0,1-1.748,0V66.655h-9.913v7.508a.881.881,0,0,1-1.748,0V66.655h-9.045v9.616l4.2,4.9.524-.441A17.1,17.1,0,0,1,185.6,76.814Z" fill="#9acfa8"/><path d="M319.528,473.206a1.163,1.163,0,0,1-.775-.307,1.744,1.744,0,0,1-.519-1.556l.835-5.911-3.546-4.187a1.854,1.854,0,0,1-.331-1.632,1.4,1.4,0,0,1,1.061-1.083l4.9-.863,2.192-5.379a1.226,1.226,0,0,1,2.356,0l2.19,5.38,4.9.863a1.4,1.4,0,0,1,1.061,1.083,1.849,1.849,0,0,1-.332,1.632l-3.546,4.187.836,5.912a1.747,1.747,0,0,1-.523,1.558,1.128,1.128,0,0,1-1.39.116l-4.375-2.787-4.382,2.791A1.13,1.13,0,0,1,319.528,473.206Zm9.555-2.313-.87-6.154,3.69-4.36-5.1-.9-2.28-5.6-2.281,5.6-5.1.9,3.691,4.36-.87,6.154,4.562-2.907Z" transform="translate(-138.636 -374.631)" fill="#9acfa8" opacity="0.8"/></g></svg>