<svg xmlns="http://www.w3.org/2000/svg" width="30" height="40" viewBox="0 0 30 40"><g transform="translate(-233.3 -75)"><path d="M238.324,79.582l4.06-5.334a1.158,1.158,0,0,0,.243-.7v-7.04A2.694,2.694,0,0,0,239.787,64H220.818a2.691,2.691,0,0,0-2.84,2.506v7.045a1.167,1.167,0,0,0,.228.683l3.989,5.392a12.95,12.95,0,0,0-6.9,11.137c0,7.3,6.728,13.237,15,13.237s15-5.937,15-13.237A12.95,12.95,0,0,0,238.324,79.582Zm-2.071-13.076h3.539v6.665l-3.539,4.641V66.506Zm-9.062,0h6.222V77.813a16.866,16.866,0,0,0-3.113-.286,17.262,17.262,0,0,0-3.113.286V66.506Zm-6.374,6.674V66.506h3.534V77.96Zm9.487,28.318c-6.708,0-12.165-4.816-12.165-10.735s5.457-10.735,12.165-10.735,12.165,4.816,12.165,10.735S237.013,101.5,230.305,101.5Z" transform="translate(18 11)" fill="#aed7b8"/><path d="M325.817,467.2c-5.523,0-10.017,3.795-10.017,8.457s4.495,8.457,10.017,8.457,10.017-3.795,10.017-8.457S331.34,467.2,325.817,467.2Zm0,14.493c-3.943,0-7.149-2.707-7.149-6.035s3.206-6.035,7.149-6.035,7.149,2.707,7.149,6.035S329.755,481.693,325.817,481.693Z" transform="translate(-77.373 -375.156)" fill="#aed7b8"/></g></svg>