<svg xmlns="http://www.w3.org/2000/svg" width="23.252" height="31.972" viewBox="0 0 23.252 31.972"><g transform="translate(-170.666 -42.667)"><path d="M214.786,42.667h17.439a1.453,1.453,0,0,1,1.453,1.453v8.72H213.333V44.12a1.453,1.453,0,0,1,1.453-1.453Z" transform="translate(-41.213)" fill="#f4f4f3"/><path d="M214.786,42.667h5.086V52.839h-6.54V44.12a1.453,1.453,0,0,1,1.453-1.453Zm12.353,0h5.086a1.453,1.453,0,0,1,1.453,1.453v8.72h-6.54Z" transform="translate(-41.213)" fill="#3aab21"/><path d="M171.248,341.333h22.09a.581.581,0,0,1,.581.581v.291a.581.581,0,0,1-.581.581h-22.09a.581.581,0,0,1-.581-.581v-.291a.581.581,0,0,1,.581-.581Z" transform="translate(0 -288.494)" fill="#c2681b"/><path d="M341.333,341.333h11.626v4.36H341.333Z" transform="translate(-164.854 -288.494)" fill="#c2681b"/><path d="M223.506,394.173m-10.173,0A10.173,10.173,0,1,0,223.506,384a10.173,10.173,0,0,0-10.173,10.173Z" transform="translate(-41.213 -329.707)" fill="#e19449"/><path d="M264.72,435.387m-8.72,0a8.72,8.72,0,1,0,8.72-8.72A8.72,8.72,0,0,0,256,435.387Z" transform="translate(-82.427 -370.921)" fill="#c2681b"/><path d="M285.326,463.985a7.993,7.993,0,1,1,7.993-7.993A7.993,7.993,0,0,1,285.326,463.985Z" transform="translate(-103.033 -391.527)" fill="#e19449"/><path d="M355.224,520.72l-3.417,1.8.653-3.8-2.764-2.694,3.819-.555L355.224,512l1.709,3.462,3.819.555-2.764,2.694.652,3.8Z" transform="translate(-172.932 -453.348)" fill="#ffdca6"/></g></svg>