<svg xmlns="http://www.w3.org/2000/svg" width="60" height="60" viewBox="0 0 60 60"><path d="M54,55.989H53V49.545a4.219,4.219,0,0,0-4-4.387H11a4.219,4.219,0,0,0-4,4.387v6.443H6c-3.309,0-6,2.951-6,6.58v2.742A2.1,2.1,0,0,0,2,67.5a2.1,2.1,0,0,0,2-2.193V62.569a2.106,2.106,0,0,1,2-2.193H7V94.511A4.219,4.219,0,0,0,11,98.9h2.008v4.067a2.1,2.1,0,0,0,2,2.193,2.1,2.1,0,0,0,2-2.193V98.9H42.992v4.067a2.009,2.009,0,1,0,4,0V98.9H49a4.219,4.219,0,0,0,4-4.387V60.375h1a2.106,2.106,0,0,1,2,2.193v2.742a2.009,2.009,0,1,0,4,0V62.569c0-3.629-2.691-6.58-6-6.58ZM17,93.415a4.406,4.406,0,0,1,0-8.774,4.406,4.406,0,0,1,0,8.774Zm26,0a4.406,4.406,0,1,1,4-4.387A4.207,4.207,0,0,1,43,93.415Zm4-16.451a2.11,2.11,0,0,1-2,2.193H15a2.11,2.11,0,0,1-2-2.193V53.932a2.11,2.11,0,0,1,2-2.193H45a2.11,2.11,0,0,1,2,2.193V76.964Z" transform="translate(0 -45.158)" fill="#329f4f"/></svg>