<svg xmlns="http://www.w3.org/2000/svg" width="56" height="56" viewBox="0 0 56 56"><path d="M153.733,34.133H107.067c-2.567,0-4.667,1.8-4.667,4v40c0,2.2,2.1,4,4.667,4h5.172L108.35,87a1.76,1.76,0,0,0-.141,2.062,2.407,2.407,0,0,0,2.064,1.067c.069,0,.136-.016.205-.021a2.391,2.391,0,0,0,.243.021h39.764l.023,0,.02,0c.03,0,.061-.011.091-.012a2.637,2.637,0,0,0,.727-.133c.061-.021.117-.047.174-.072a2.38,2.38,0,0,0,.322-.133,2,2,0,0,0,.976-1.281,1.772,1.772,0,0,0-.369-1.5l-3.887-4.871h5.172c2.567,0,4.667-1.8,4.667-4v-40C158.4,35.933,156.3,34.133,153.733,34.133Zm-44.333,38c0-2.209,2.089-4,4.667-4s4.667,1.791,4.667,4-2.089,4-4.667,4S109.4,74.342,109.4,72.133Zm36.7,14H114.7l3.193-4h25.017l3.194,4Zm.631-10c-2.577,0-4.667-1.791-4.667-4s2.089-4,4.667-4,4.667,1.791,4.667,4S149.311,76.133,146.733,76.133Zm4.667-18c0,2.2-2.1,4-4.667,4H114.067c-2.567,0-4.667-1.8-4.667-4v-4c0-2.2,2.1-4,4.667-4h32.667c2.567,0,4.667,1.8,4.667,4v4Zm-2.333-14H111.733a2.024,2.024,0,1,1,0-4h37.333a2.024,2.024,0,1,1,0,4Z" transform="translate(-102.4 -34.133)" fill="#329f4f"/></svg>