<svg xmlns="http://www.w3.org/2000/svg" width="58" height="58" viewBox="0 0 58 58"><path d="M198.355,42.541v2.968a7.161,7.161,0,0,1-.387,2.473,3.234,3.234,0,0,1-1.392,1.67,5.858,5.858,0,0,1-3.016.618V54.1a3.423,3.423,0,0,1-1.431,2.752A5.339,5.339,0,0,1,188.688,58a5.184,5.184,0,0,1-3.4-1.144,3.454,3.454,0,0,1-1.392-2.752V50.271H154.816V54.1a3.454,3.454,0,0,1-1.392,2.752,5.184,5.184,0,0,1-3.4,1.144,5.339,5.339,0,0,1-3.441-1.144A3.423,3.423,0,0,1,145.15,54.1V50.271a5.671,5.671,0,0,1-2.939-.618,3.234,3.234,0,0,1-1.392-1.67,7.687,7.687,0,0,1-.425-2.442q-.039-1.391-.039-3V7.729a6.074,6.074,0,0,1,.773-3,8.24,8.24,0,0,1,2.088-2.442,10.446,10.446,0,0,1,3.055-1.67A11.122,11.122,0,0,1,150.022,0h38.667a11.122,11.122,0,0,1,3.751.618,10.446,10.446,0,0,1,3.055,1.67,8.24,8.24,0,0,1,2.088,2.442,6.074,6.074,0,0,1,.773,3V42.541ZM159.534,3.834a2.638,2.638,0,0,0-1.7.557,1.684,1.684,0,0,0-.7,1.36,1.742,1.742,0,0,0,.7,1.422,2.638,2.638,0,0,0,1.7.557h19.643a2.638,2.638,0,0,0,1.7-.557,1.742,1.742,0,0,0,.7-1.422,1.684,1.684,0,0,0-.7-1.36,2.638,2.638,0,0,0-1.7-.557ZM152.264,43.16a3.9,3.9,0,0,0,2.513-.835,2.456,2.456,0,0,0,0-4.019,4.259,4.259,0,0,0-5.065,0,2.511,2.511,0,0,0,0,4.019A3.861,3.861,0,0,0,152.264,43.16Zm33.872-.124a3.567,3.567,0,0,0,2.359-.8,2.384,2.384,0,0,0,0-3.834,3.567,3.567,0,0,0-2.359-.8,3.681,3.681,0,0,0-2.436.8,2.384,2.384,0,0,0,0,3.834,3.682,3.682,0,0,0,2.436.8Zm7.424-31.473H145.15V27.021H193.56V11.563Z" transform="translate(-140.355 0)" fill="#329f4f"/></svg>