<svg xmlns="http://www.w3.org/2000/svg" width="52.287" height="50" viewBox="0 0 52.287 50"><g transform="translate(0 0)" opacity="0.8"><g transform="translate(0 0)"><path d="M114.594,86.752c-2.626-2.789-7.6-2.427-11.8.607a23.786,23.786,0,0,0-25.36.006c-4.213-3.04-9.191-3.4-11.822-.613-2.83,3.011-1.926,8.6,1.931,12.867a24.672,24.672,0,0,0,5.87,26.037l-2.1,3.408c-.764,1.243-.14,3.046,1.4,4.021s3.414.764,4.178-.484l1.85-3a23.792,23.792,0,0,0,23.02-.163l1.955,3.169c.764,1.243,2.632,1.459,4.178.484s2.165-2.778,1.4-4.021l-2.194-3.56a.759.759,0,0,0-.058-.088,24.654,24.654,0,0,0,5.625-25.8C116.519,95.336,117.418,89.763,114.594,86.752Zm-16.9,22.886a1.979,1.979,0,0,1,1.879,1.931,1.923,1.923,0,0,1-1.972,1.8H88.469c-.683,0-1.237-.834-1.237-1.867,0-.035.006-.07.006-.1s-.006-.047-.006-.07V97.46a1.971,1.971,0,0,1,1.85-1.972,2.1,2.1,0,0,1,1.826,2.287v11.863Zm-7.586,18.93a20.484,20.484,0,1,1,20.2-20.482A20.363,20.363,0,0,1,90.109,128.568Z" transform="translate(-63.958 -83.7)" fill="#329f4f"/></g></g></svg>