<svg xmlns="http://www.w3.org/2000/svg" width="32.646" height="27.012" viewBox="0 0 32.646 27.012"><path d="M93.73,143.949a9.026,9.026,0,0,0-7.532-1.917,10.092,10.092,0,0,0-4.457,1.8,10,10,0,0,0-6.839-2.72,10.413,10.413,0,0,0-9.337,5.182c-2,3.383-2.581,9.21,2.362,14.5,6.778,7.249,13.976,7.333,14.28,7.333a1.333,1.333,0,0,0,.005-2.666c-.063,0-6.392-.127-12.337-6.487-3.936-4.21-3.545-8.73-2.014-11.322a7.785,7.785,0,0,1,7.042-3.871,7.171,7.171,0,0,1,4.279,1.434l.011-.018a8.517,8.517,0,0,1,3.015,3.741,6.015,6.015,0,0,1,.485,1.421,4.048,4.048,0,0,1-.477,3.108,1.143,1.143,0,0,1-.936.42,1.218,1.218,0,0,1-.951-.64,3.736,3.736,0,0,1,.055-3.558q.258-.546.55-1.033a6.241,6.241,0,0,0-1.948-1.877,14.23,14.23,0,0,0-1.01,1.768,6.438,6.438,0,0,0,.1,6.125,3.779,3.779,0,0,0,6.176.516,6.5,6.5,0,0,0,1.07-5.274,10.583,10.583,0,0,0-1.812-4.064,7.458,7.458,0,0,1,3.089-1.182,6.514,6.514,0,0,1,5.4,1.3,6.112,6.112,0,0,1,2.085,4.586c0,7.357-9.457,10.871-9.859,11.016a1.333,1.333,0,1,0,.908,2.506c4.315-1.565,11.617-6.174,11.617-13.523A8.812,8.812,0,0,0,93.73,143.949Z" transform="translate(-64.098 -141.117)" fill="#329f4f"/></svg>