<svg xmlns="http://www.w3.org/2000/svg" width="592" height="415.273" viewBox="0 0 592 415.273"><g transform="translate(880 -1)" fill="#2dbb54"><path d="M -449.5076293945313 415.5513916015625 C -450.2851257324219 341.5687561035156 -510.9163208007813 281.4997253417969 -584.9999389648438 281.4997253417969 C -658.67431640625 281.4997253417969 -719.3013916015625 341.2247619628906 -720.4822998046875 414.7891845703125 C -743.8098754882813 405.7687072753906 -765.448486328125 394.455322265625 -784.8096313476563 381.1561279296875 C -804.299072265625 367.7689514160156 -821.2719116210938 352.5137329101563 -835.2568359375 335.8141174316406 C -849.4569702148438 318.857421875 -860.4396362304688 300.5687255859375 -867.8997192382813 281.4561157226563 C -875.5972290039063 261.7347412109375 -879.5001831054688 241.2261962890625 -879.5001831054688 220.4999694824219 C -879.5001831054688 205.6522674560547 -877.4829711914063 190.8135833740234 -873.5045776367188 176.3961181640625 C -869.6268920898438 162.3435821533203 -863.8400268554688 148.5197296142578 -856.3047485351563 135.3084259033203 C -848.9044189453125 122.3341217041016 -839.7442016601563 109.8195037841797 -829.078369140625 98.11227416992188 C -818.5113525390625 86.51335144042969 -806.3748168945313 75.60550689697266 -793.0059204101563 65.69165802001953 C -779.63427734375 55.7758903503418 -764.9202270507813 46.7734260559082 -749.2723999023438 38.93412017822266 C -733.4722290039063 31.01850509643555 -716.5806884765625 24.21958160400391 -699.0669555664063 18.72642707824707 C -681.2274169921875 13.13111972808838 -662.5586547851563 8.833735466003418 -643.579345703125 5.953658580780029 C -624.1038818359375 2.998427629470825 -604.05859375 1.499966025352478 -584.0001220703125 1.499966025352478 C -563.9415893554688 1.499966025352478 -543.8963012695313 2.998427629470825 -524.4208984375 5.953658580780029 C -505.4415893554688 8.833735466003418 -486.7728271484375 13.13111972808838 -468.9332885742188 18.72642707824707 C -451.41943359375 24.21965789794922 -434.5278930664063 31.01850509643555 -418.7277526855469 38.93412017822266 C -403.0798950195313 46.77350616455078 -388.3658142089844 55.77596664428711 -374.9944152832031 65.69165802001953 C -361.6255187988281 75.60543060302734 -349.4889831542969 86.51327514648438 -338.9219055175781 98.11219787597656 C -328.2559814453125 109.8195037841797 -319.0957336425781 122.3341217041016 -311.6954956054688 135.3084259033203 C -304.1604309082031 148.5191955566406 -298.3735961914063 162.3430480957031 -294.4956665039063 176.3961181640625 C -290.5172119140625 190.8135070800781 -288.4999694824219 205.6521911621094 -288.4999694824219 220.4999694824219 C -288.4999694824219 241.3696594238281 -292.4563598632813 262.0144348144531 -300.2591247558594 281.8609619140625 C -307.8202819824219 301.0928039550781 -318.9477233886719 319.4808959960938 -333.3324279785156 336.5142822265625 C -347.5011291503906 353.2919616699219 -364.6871948242188 368.5925903320313 -384.4132690429688 381.9912109375 C -404.0192565917969 395.3082275390625 -425.9173278808594 406.5975952148438 -449.5076293945313 415.5513916015625 Z" stroke="none"/><path d="M -449.0170288085938 414.8295593261719 C -425.7168273925781 405.9303894042969 -404.0834045410156 394.747314453125 -384.6942138671875 381.5775756835938 C -365.0058288574219 368.20458984375 -347.8537292480469 352.9345703125 -333.7144165039063 336.191650390625 C -319.3650512695313 319.2000427246094 -308.2655944824219 300.8589782714844 -300.7245178222656 281.677978515625 C -292.9446716308594 261.8900451660156 -288.9999694824219 241.3067321777344 -288.9999694824219 220.4999694824219 C -288.9999694824219 205.6971130371094 -291.0111083984375 190.9031982421875 -294.9776611328125 176.5291137695313 C -298.8445129394531 162.51611328125 -304.6153564453125 148.7308197021484 -312.1298217773438 135.5561981201172 C -319.5118103027344 122.6137390136719 -328.6503601074219 110.1290435791016 -339.29150390625 98.44896697998047 C -349.8368225097656 86.87388610839844 -361.9492797851563 75.98781585693359 -375.2922058105469 66.09327697753906 C -388.6404418945313 56.1948127746582 -403.3296508789063 47.20758056640625 -418.9517517089844 39.38119506835938 C -434.7279663085938 31.47750473022461 -451.5945739746094 24.68873596191406 -469.0829772949219 19.20350456237793 C -486.8981323242188 13.61581230163574 -505.541748046875 9.324274063110352 -524.4959106445313 6.448042869567871 C -543.946533203125 3.496504545211792 -563.9666137695313 1.999966025352478 -584.0001220703125 1.999966025352478 C -604.0335693359375 1.999966025352478 -624.0536499023438 3.496504545211792 -643.5043334960938 6.448042869567871 C -662.45849609375 9.324274063110352 -681.1021118164063 13.61581230163574 -698.9172973632813 19.20350456237793 C -716.4055786132813 24.68873596191406 -733.2720947265625 31.4774284362793 -749.0484008789063 39.38119506835938 C -764.67041015625 47.20750427246094 -779.3596801757813 56.19473648071289 -792.7081298828125 66.09327697753906 C -806.051025390625 75.98789215087891 -818.1634521484375 86.87388610839844 -828.708740234375 98.44896697998047 C -839.3497924804688 110.1290435791016 -848.4883422851563 122.6137390136719 -855.8704223632813 135.5561981201172 C -863.3851318359375 148.7313537597656 -869.1559448242188 162.5166625976563 -873.0225830078125 176.5291137695313 C -876.9890747070313 190.9032745361328 -879.0001831054688 205.6971893310547 -879.0001831054688 220.4999694824219 C -879.0001831054688 241.1637420654297 -875.1087646484375 261.6111145019531 -867.4339599609375 281.2742614746094 C -859.99365234375 300.3362731933594 -849.0387573242188 318.578125 -834.8734130859375 335.4930419921875 C -820.9176635742188 352.1578979492188 -803.9785766601563 367.3825073242188 -784.5264892578125 380.7439575195313 C -765.3820190429688 393.8944396972656 -744.0057373046875 405.1004333496094 -720.9688110351563 414.0641479492188 C -719.4019165039063 340.5581359863281 -658.7061767578125 280.9997253417969 -584.9999389648438 280.9997253417969 C -510.8796691894531 280.9997253417969 -450.1758117675781 340.8995056152344 -449.0170288085938 414.8295593261719 M -450.0025024414063 416.2732849121094 L -450.001953125 416.2730407714844 C -450.3902893066406 342.2344970703125 -510.9501342773438 281.9997253417969 -584.9999389648438 281.9997253417969 C -658.6406860351563 281.9997253417969 -719.1978149414063 341.8939514160156 -719.991943359375 415.5140380859375 C -743.6130981445313 406.4369812011719 -765.5157470703125 395.0157470703125 -785.0927124023438 381.5682678222656 C -804.6195068359375 368.1554260253906 -821.6260375976563 352.8695678710938 -835.64013671875 336.1351318359375 C -849.8754272460938 319.1365051269531 -860.8857421875 300.8009643554688 -868.365478515625 281.6378784179688 C -876.0857543945313 261.8583374023438 -880.0001831054688 241.28857421875 -880.0001831054688 220.4999694824219 C -880.0001831054688 205.6074981689453 -877.9769897460938 190.7240447998047 -873.986572265625 176.2631225585938 C -870.0977172851563 162.1701965332031 -864.2947387695313 148.3077392578125 -856.7390747070313 135.0607299804688 C -849.320556640625 122.0545043945313 -840.1384887695313 109.5098876953125 -829.447998046875 97.77550506591797 C -818.8591918945313 86.15273284912109 -806.698486328125 75.22304534912109 -793.3037109375 65.29004669189453 C -779.9089965820313 55.35712051391602 -765.1701049804688 46.33935165405273 -749.496337890625 38.48712158203125 C -733.6724853515625 30.5595817565918 -716.7559814453125 23.75058174133301 -699.2166137695313 18.24935150146484 C -681.3531494140625 12.64650440216064 -662.6593627929688 8.343274116516113 -643.6543579101563 5.4593505859375 C -624.1538696289063 2.500273704528809 -604.083251953125 0.999966025352478 -584.0001220703125 0.999966025352478 C -563.9169921875 0.999966025352478 -543.8462524414063 2.500273704528809 -524.3458862304688 5.4593505859375 C -505.3408813476563 8.343274116516113 -486.6471252441406 12.64650440216064 -468.7836608886719 18.24935150146484 C -451.2442626953125 23.75058174133301 -434.3276672363281 30.5595817565918 -418.5038146972656 38.48712158203125 C -402.8301086425781 46.33935165405273 -388.0912780761719 55.35712051391602 -374.6965942382813 65.29004669189453 C -361.3017272949219 75.22304534912109 -349.1410522460938 86.15273284912109 -338.5522766113281 97.77550506591797 C -327.8616638183594 109.5098876953125 -318.6795959472656 122.0545043945313 -311.2611999511719 135.0607299804688 C -303.7054443359375 148.3077392578125 -297.902587890625 162.1701965332031 -294.013671875 176.2631225585938 C -290.0232849121094 190.7238159179688 -287.9999694824219 205.6072692871094 -287.9999694824219 220.4999694824219 C -287.9999694824219 241.4324340820313 -291.9679565429688 262.1388244628906 -299.7938232421875 282.0438842773438 C -307.3749694824219 301.32666015625 -318.530517578125 319.7617492675781 -332.950439453125 336.8368835449219 C -347.1485900878906 353.6494140625 -364.36865234375 368.9806518554688 -384.1323547363281 382.4048156738281 C -403.9568786621094 395.8702697753906 -426.11865234375 407.2651977539063 -450.001953125 416.2730407714844 L -450.0025024414063 416.2732849121094 Z" stroke="none" fill="#707070"/></g></svg>