<svg xmlns="http://www.w3.org/2000/svg" width="36" height="36" viewBox="0 0 36 36"><path d="M32.455,8.9H26.731A5.486,5.486,0,1,0,18,2.255,5.485,5.485,0,1,0,9.27,8.9H3.545A3.555,3.555,0,0,0,0,12.453v4.424a3.561,3.561,0,0,0,2.54,3.41V32.446A3.468,3.468,0,0,0,6,35.916H17.587a1.056,1.056,0,0,0,.826,0H30a3.468,3.468,0,0,0,3.458-3.47V20.287A3.561,3.561,0,0,0,36,16.877V12.453A3.555,3.555,0,0,0,32.455,8.9ZM22.423,2.124a3.376,3.376,0,0,1,0,6.752H19.058V5.5s0-.006,0-.009a3.374,3.374,0,0,1,3.365-3.371Zm-8.846,0A3.374,3.374,0,0,1,16.942,5.5V8.875H13.571a3.376,3.376,0,0,1,.007-6.752ZM2.117,16.877V12.453A1.435,1.435,0,0,1,3.545,11.02h13.4V18.31H3.545a1.435,1.435,0,0,1-1.428-1.433Zm2.54,15.569V20.433H16.942V33.792H6a1.345,1.345,0,0,1-1.342-1.346ZM30,33.792H19.059V20.433H31.343V32.446A1.345,1.345,0,0,1,30,33.792h0Zm3.882-16.915a1.435,1.435,0,0,1-1.428,1.433h-13.4V11.02h13.4a1.435,1.435,0,0,1,1.428,1.433v4.424Z" fill="#329f4f"/></svg>