<svg xmlns="http://www.w3.org/2000/svg" width="23" height="31.625" viewBox="0 0 23 31.625"><g transform="translate(-170.666 -42.667)"><path d="M214.771,42.667h17.25a1.438,1.438,0,0,1,1.438,1.438v8.625H213.333V44.1a1.437,1.437,0,0,1,1.438-1.438Z" transform="translate(-41.229)" fill="#f4f4f3"/><path d="M214.771,42.667H219.8V52.729h-6.469V44.1a1.437,1.437,0,0,1,1.438-1.438Zm12.219,0h5.031a1.438,1.438,0,0,1,1.438,1.438v8.625h-6.469V42.667Z" transform="translate(-41.229)" fill="#d0021b"/><path d="M171.241,341.333h21.85a.575.575,0,0,1,.575.575v.288a.575.575,0,0,1-.575.575h-21.85a.575.575,0,0,1-.575-.575v-.288A.575.575,0,0,1,171.241,341.333Z" transform="translate(0 -288.604)" fill="#e3a815"/><path d="M341.333,341.333h11.5v4.313h-11.5Z" transform="translate(-164.917 -288.604)" fill="#e3a815"/><path d="M223.4,394.063m-10.063,0A10.063,10.063,0,1,0,223.4,384a10.063,10.063,0,0,0-10.063,10.063Z" transform="translate(-41.229 -329.833)" fill="#f5cf41"/><path d="M264.625,435.292m-8.625,0a8.625,8.625,0,1,0,8.625-8.625A8.625,8.625,0,0,0,256,435.292Z" transform="translate(-82.459 -371.063)" fill="#e3a815"/><path d="M285.239,463.812a7.906,7.906,0,1,1,7.906-7.906A7.906,7.906,0,0,1,285.239,463.812Z" transform="translate(-103.073 -391.677)" fill="#f5cf41"/><path d="M355.165,520.625l-3.38,1.777.645-3.763-2.734-2.665,3.778-.549,1.69-3.424,1.691,3.424,3.778.549-2.734,2.665.645,3.763Z" transform="translate(-172.998 -453.521)" fill="#fff2a0"/></g></svg>