<svg xmlns="http://www.w3.org/2000/svg" width="22.964" height="31.576" viewBox="0 0 22.964 31.576"><g transform="translate(-170.666 -42.667)"><path d="M214.768,42.667h17.223a1.435,1.435,0,0,1,1.435,1.435v8.612H213.333V44.1a1.435,1.435,0,0,1,1.435-1.435Z" transform="translate(-41.231 0)" fill="#f4f4f3"/><path d="M214.768,42.667h5.023V52.714h-6.459V44.1a1.435,1.435,0,0,1,1.435-1.435Zm12.2,0h5.023a1.435,1.435,0,0,1,1.435,1.435v8.612h-6.459Z" transform="translate(-41.231 0)" fill="#1723ca"/><path d="M171.24,341.333h21.816a.574.574,0,0,1,.574.574v.287a.574.574,0,0,1-.574.574H171.24a.574.574,0,0,1-.574-.574v-.287A.574.574,0,0,1,171.24,341.333Z" transform="translate(0 -288.619)" fill="#b8b8b8"/><path d="M341.333,341.333h11.482v4.306H341.333Z" transform="translate(-164.926 -288.62)" fill="#b8b8b8"/><path d="M223.38,394.047m-10.047,0A10.047,10.047,0,1,0,223.38,384a10.047,10.047,0,0,0-10.047,10.047Z" transform="translate(-41.231 -329.851)" fill="#d3d3d3"/><path d="M264.612,435.279m-8.612,0a8.612,8.612,0,1,0,8.612-8.612A8.612,8.612,0,0,0,256,435.279Z" transform="translate(-82.463 -371.083)" fill="#b8b8b8"/><path d="M285.227,463.787a7.894,7.894,0,1,1,7.894-7.894A7.894,7.894,0,0,1,285.227,463.787Z" transform="translate(-103.078 -391.698)" fill="#d3d3d3"/><path d="M355.156,520.612l-3.374,1.774.644-3.758-2.73-2.661,3.772-.548L355.156,512l1.688,3.419,3.772.548-2.73,2.661.644,3.758Z" transform="translate(-173.008 -453.545)" fill="#f0f0f0"/></g></svg>