<svg xmlns="http://www.w3.org/2000/svg" width="29.085" height="29.085" viewBox="0 0 29.085 29.085"><g transform="translate(-12.947 -11.943)"><path d="M26.489,11.943A14.543,14.543,0,1,0,41.032,26.486,14.56,14.56,0,0,0,26.489,11.943m0,27.679A13.136,13.136,0,1,1,39.625,26.486,13.15,13.15,0,0,1,26.489,39.622" transform="translate(1 0)" fill="#329f4f"/><path d="M466.464,757.357a.94.94,0,1,0,.939.94.94.94,0,0,0-.939-.94" transform="translate(-439.409 -723.772)" fill="#329f4f"/><path d="M351.155,228.427a4.6,4.6,0,0,0-4.6,4.6.858.858,0,1,0,1.717,0,2.879,2.879,0,0,1,5.759,0,3.344,3.344,0,0,1-1.822,2.69,3.717,3.717,0,0,0-2.012,3.221v2.11a.859.859,0,0,0,1.718,0v-2.149c0-.012,0-.055,0-.069s-.022-.628.932-1.469c-.1.072.066-.056.269-.183a4.942,4.942,0,0,0,2.634-4.15,4.6,4.6,0,0,0-4.6-4.6" transform="translate(-323.898 -210.199)" fill="#329f4f"/></g></svg>