<svg xmlns="http://www.w3.org/2000/svg" width="27.644" height="27.001" viewBox="0 0 27.644 27.001"><path d="M85.883,62.442H66.641a4.246,4.246,0,0,0-4.2,4.249v18.5a4.246,4.246,0,0,0,4.2,4.249H85.883a4.246,4.246,0,0,0,4.2-4.249v-18.5a4.16,4.16,0,0,0-4.2-4.249Zm2.168,22.889a2.153,2.153,0,0,1-2.168,2.193H66.641a2.153,2.153,0,0,1-2.168-2.193V66.691A2.153,2.153,0,0,1,66.641,64.5H85.884a2.153,2.153,0,0,1,2.168,2.193ZM72.6,69.158l-2.981,3.015L68.267,70.8a.9.9,0,0,0-1.355,0,.919.919,0,0,0,0,1.37l2.168,2.193a1.138,1.138,0,0,0,.813.274c.407,0,.407-.137.813-.274l3.659-3.7a.919.919,0,0,0,0-1.371c-.813-.411-1.355-.411-1.762-.137ZM85.07,70.8H75.72a.959.959,0,0,0,0,1.919h9.351a.861.861,0,0,0,.948-.959A.932.932,0,0,0,85.07,70.8ZM70.164,76.97a3.153,3.153,0,1,0,3.117,3.152A3.084,3.084,0,0,0,70.164,76.97Zm0,4.112a1.1,1.1,0,1,1,1.084-1.1A1.075,1.075,0,0,1,70.164,81.082ZM85.07,79.026H75.72a.861.861,0,0,0-.949.96.932.932,0,0,0,.949.959h9.351a.861.861,0,0,0,.948-.959.932.932,0,0,0-.949-.959Z" transform="translate(-62.44 -62.442)" fill="#329f4f"/></svg>