<svg xmlns="http://www.w3.org/2000/svg" xmlns:xlink="http://www.w3.org/1999/xlink" width="351" height="143.001" viewBox="0 0 351 143.001">
  <defs>
    <filter id="card_bg" x="0" y="0" width="351" height="143.001" filterUnits="userSpaceOnUse">
      <feOffset dy="3" />
      <feGaussianBlur stdDeviation="3" result="blur"/>
      <feFlood flood-opacity="0.161"/>
      <feComposite operator="in" in2="blur"/>
      <feComposite in="SourceGraphic"/>
    </filter>
  </defs>
  <g transform="matrix(1, 0, 0, 1, 0, 0)" filter="url(#card_bg)">
    <path id="card_bg-2"  d="M-1533.767,126H-1762a8.009,8.009,0,0,1-8-8V9a8.009,8.009,0,0,1,8-8h317a8.01,8.01,0,0,1,8,8V118a8.01,8.01,0,0,1-8,8h-4.566a14.851,14.851,0,0,1-7.813-2.621,11.522,11.522,0,0,1-3.547-4.195A29.538,29.538,0,0,0-1489.5,97a29.615,29.615,0,0,0-27.83,19.754l-.013-.019,0,.007a16.663,16.663,0,0,1-3.689,4.521,18.552,18.552,0,0,1-5.081,3.172A20.985,20.985,0,0,1-1533.767,126Z"
          transform="translate(1779 5)"
          fill="#00bb98"/>
  </g>
</svg>
