<svg xmlns="http://www.w3.org/2000/svg" xmlns:xlink="http://www.w3.org/1999/xlink" width="40" height="36.472" viewBox="0 0 40 36.472"><defs><linearGradient id="a" x1="-0.693" y1="3.439" x2="1.964" y2="3.21" gradientUnits="objectBoundingBox"><stop offset="0" stop-color="#50c9c3"/><stop offset="1" stop-color="#96deda"/></linearGradient></defs><path d="M36,51.742h-.667V47.825a2.675,2.675,0,0,0-2.667-2.667H7.333a2.675,2.675,0,0,0-2.667,2.667v3.917H4a4,4,0,0,0-4,4v1.667a1.333,1.333,0,1,0,2.667,0V55.742A1.335,1.335,0,0,1,4,54.408h.667v20.75a2.675,2.675,0,0,0,2.667,2.667H8.672V80.3a1.333,1.333,0,0,0,2.667,0V77.825H28.661V80.3a1.333,1.333,0,0,0,2.667,0V77.825h1.339a2.675,2.675,0,0,0,2.667-2.667V54.408H36a1.335,1.335,0,0,1,1.333,1.333v1.667a1.333,1.333,0,1,0,2.667,0V55.742a4,4,0,0,0-4-4ZM11.333,74.492A2.667,2.667,0,1,1,14,71.825,2.667,2.667,0,0,1,11.333,74.492Zm17.333,0a2.667,2.667,0,1,1,2.667-2.667A2.667,2.667,0,0,1,28.667,74.492Zm2.667-10A1.337,1.337,0,0,1,30,65.825H10a1.337,1.337,0,0,1-1.333-1.333v-14A1.337,1.337,0,0,1,10,49.158H30a1.337,1.337,0,0,1,1.333,1.333v14Z" transform="translate(0 -45.158)" fill="url(#a)"/></svg>