<svg xmlns="http://www.w3.org/2000/svg" width="21.742" height="15.098" viewBox="0 0 21.742 15.098"><path d="M71.13,195.624c-.072,0-.14-.007-.21-.01l1.417,1.822h0v8.455A1.208,1.208,0,0,1,71.13,207.1H68.714a1.208,1.208,0,0,1-1.208-1.208v-1.812H56.635v1.812a1.208,1.208,0,0,1-1.208,1.208H53.012a1.208,1.208,0,0,1-1.208-1.208v-8.455h0l1.635-1.84a3.49,3.49,0,0,1-.428.028c-1,0-1.812-.406-1.812-.906s.811-.906,1.812-.906a2.434,2.434,0,0,1,1.588.478L56.635,192H68.11l1.655,2.128a2.8,2.8,0,0,1,1.365-.316c1,0,1.812.406,1.812.906S72.131,195.624,71.13,195.624Zm-17.514,3.02c0,.667.946,1.208,2.114,1.208s2.114-.541,2.114-1.208-.946-1.208-2.114-1.208S53.616,197.976,53.616,198.643Zm13.48-5.435H57.65l-2.222,3.02H69.318Zm1.317,4.228c-1.167,0-2.114.541-2.114,1.208s.946,1.208,2.114,1.208,2.114-.541,2.114-1.208S69.58,197.435,68.412,197.435Z" transform="translate(-51.2 -192)" fill="#fff"/></svg>