<svg xmlns="http://www.w3.org/2000/svg" width="21.028" height="23.459" viewBox="0 0 21.028 23.459"><path d="M131.392,76.569a14.736,14.736,0,0,0-.641-3.382,14.956,14.956,0,0,0-2.148-4.279.76.76,0,0,0-1.033-.163.691.691,0,0,0-.17.99,13.549,13.549,0,0,1,1.937,3.87,13.36,13.36,0,0,1,.578,3.063,8.949,8.949,0,0,1-4.619,8.887,6.955,6.955,0,0,0-4.061-5.6.768.768,0,0,0-.638.038,7.748,7.748,0,0,0-4.043,5.662,8.221,8.221,0,0,1-4.676-7.416c0-2.145,1.114-4.133,3.4-6.075.3-.259.615-.513.925-.767,1.682-1.377,3.423-2.8,4.3-4.967q.144-.35.249-.637a14.541,14.541,0,0,1,5.992,9.269.739.739,0,0,0,.867.562.711.711,0,0,0,.586-.831,15.506,15.506,0,0,0-7.526-10.725c-.02-.012-.042-.021-.064-.032a.757.757,0,0,0-.984.328.7.7,0,0,0-.076.308c-.069.262-.358,1.073-.424,1.243-.743,1.834-2.268,3.081-3.883,4.4-.317.259-.633.519-.945.783-2.59,2.2-3.9,4.6-3.9,7.139a9.711,9.711,0,0,0,6.523,9.138.77.77,0,0,0,.691-.074.7.7,0,0,0,.323-.591,6.456,6.456,0,0,1,3.05-5.29,5.758,5.758,0,0,1,2.9,5.263.7.7,0,0,0,.339.6.764.764,0,0,0,.707.05,10.47,10.47,0,0,0,6.461-10.762M119.857,65.252a.6.6,0,0,1-.087-.072.629.629,0,0,0,.087.072" transform="translate(-110.398 -63.967)" fill="#fff"/></svg>