<svg xmlns="http://www.w3.org/2000/svg" xmlns:xlink="http://www.w3.org/1999/xlink" width="29.247" height="34.121" viewBox="0 0 29.247 34.121"><defs><linearGradient id="a" x1="-0.186" y1="0.444" x2="1.096" y2="0.43" gradientUnits="objectBoundingBox"><stop offset="0" stop-color="#50c9c3"/><stop offset="1" stop-color="#96deda"/></linearGradient></defs><path d="M129.209,34.133H104.837a2.444,2.444,0,0,0-2.437,2.437V60.943a2.444,2.444,0,0,0,2.437,2.437h2.7l-2.031,2.968a1.217,1.217,0,0,0,1,1.907c.036,0,.071-.01.107-.013a1.075,1.075,0,0,0,.127.013h20.789c.016,0,.032-.007.048-.007a1.2,1.2,0,0,0,.38-.081c.032-.013.061-.029.091-.044a1.151,1.151,0,0,0,.168-.081,1.217,1.217,0,0,0,.317-1.693l-2.03-2.968h2.7a2.444,2.444,0,0,0,2.437-2.437V36.571A2.444,2.444,0,0,0,129.209,34.133ZM106.056,57.287a2.437,2.437,0,1,1,2.437,2.437A2.437,2.437,0,0,1,106.056,57.287Zm19.168,8.53h-16.4l1.668-2.437h13.065l1.668,2.437Zm.33-6.093a2.437,2.437,0,1,1,2.437-2.437A2.437,2.437,0,0,1,125.554,59.724Zm2.437-10.967a2.444,2.444,0,0,1-2.437,2.437H108.493a2.444,2.444,0,0,1-2.437-2.437V46.319a2.444,2.444,0,0,1,2.437-2.437h17.061a2.444,2.444,0,0,1,2.437,2.437v2.437Zm-1.219-8.53h-19.5a1.219,1.219,0,0,1,0-2.437h19.5a1.219,1.219,0,1,1,0,2.437Z" transform="translate(-102.4 -34.133)" fill="url(#a)"/></svg>