<svg xmlns="http://www.w3.org/2000/svg" xmlns:xlink="http://www.w3.org/1999/xlink" width="375" height="161.54" viewBox="0 0 375 161.54"><defs><linearGradient id="a" x1="0.682" y1="-0.204" x2="0.217" y2="1.677" gradientUnits="objectBoundingBox"><stop offset="0" stop-color="#38f9d7"/><stop offset="1" stop-color="#43e97b"/></linearGradient><linearGradient id="b" x1="0.5" y1="1" x2="0.5" gradientUnits="objectBoundingBox"><stop offset="0" stop-color="gray" stop-opacity="0.251"/><stop offset="0.54" stop-color="gray" stop-opacity="0.122"/><stop offset="1" stop-color="gray" stop-opacity="0.102"/></linearGradient><linearGradient id="c" x1="0" y1="0.5" x2="1" y2="0.5" xlink:href="#b"/><linearGradient id="d" y1="1" y2="0" xlink:href="#b"/><linearGradient id="e" y1="1" y2="0" xlink:href="#b"/></defs><g transform="translate(-2269 237.001)" style="isolation:isolate"><g transform="translate(2269 -237)" style="isolation:isolate"><path d="M375,161.539H0V1.965c.278.1.569.192.866.277a14.527,14.527,0,0,0,4,.566A14.608,14.608,0,0,0,13.436,0l1.916.538,3.9,1.1a14.411,14.411,0,0,0,9.486,8.6,14.525,14.525,0,0,0,4,.565,14.6,14.6,0,0,0,8.727-2.929l1.039.292,4.549,1.278A14.39,14.39,0,0,0,56.62,18.23a14.522,14.522,0,0,0,4,.565,14.582,14.582,0,0,0,8.885-3.049l5.3,1.488.064.018a14.5,14.5,0,0,0,22.67,6.366l2.185.614,2.955.83a14.5,14.5,0,0,0,22.887,6.427l1.392.391,3.534.992a14.5,14.5,0,0,0,23.1,6.487l2.625.737,2.094.588a14.5,14.5,0,0,0,23.3,6.544l4.516,1.268a14.5,14.5,0,0,0,23.5,6.6l2.291.643,2.028.57a14.5,14.5,0,0,0,23.7,6.655l4.128,1.159a14.5,14.5,0,0,0,23.885,6.708l3.943,1.107A14.5,14.5,0,0,0,293.674,78.7l1.8.507,1.959.55a14.5,14.5,0,0,0,24.246,6.809l3.588,1.008a14.5,14.5,0,0,0,24.418,6.857l1.817.51,1.6.449A14.5,14.5,0,0,0,375,104.48v57.058Z" transform="translate(375 161.538) rotate(180)" fill="url(#a)"/></g><g transform="translate(2535.162 -185.087)"><g transform="translate(12.622 1.403)"><rect width="62.138" height="70.121" fill="#fff"/></g></g><g transform="translate(2396 -196)" style="isolation:isolate"><g transform="translate(-2396 196)"><text transform="translate(2456 -170)" fill="#fff" font-size="30" font-family="SimHei"><tspan x="-60" y="0">个人信息</tspan></text></g></g><g transform="translate(2535.162 -185.087)" style="isolation:isolate"><rect width="35.276" height="22.438" transform="translate(6.365 12.946)" fill="tomato" opacity="0.2"/><rect width="40.454" height="22.977" transform="translate(0 9.816)" fill="url(#b)"/><rect width="39.483" height="19.095" transform="translate(0.432 13.161)" fill="#fff"/><rect width="13.7" height="14.456" transform="translate(3.128 14.779)" fill="url(#c)"/><rect width="12.946" height="13.808" transform="translate(3.56 15.103)" fill="tomato"/><path d="M280.23,242.811a9.15,9.15,0,0,0-.555-2.409,3.985,3.985,0,0,0-1.521-1.908,1.739,1.739,0,0,0-.841-.29,1.584,1.584,0,0,0-1.341.823,3.834,3.834,0,0,0-.25.509,1.185,1.185,0,0,0-.983,1.086,3.022,3.022,0,0,0,.427,5.706v.515a3.033,3.033,0,0,0-2.266,2.924v1.4h6.041v-1.4a3.033,3.033,0,0,0-2.264-2.924v-.515a3.022,3.022,0,0,0,2.265-2.925c0-.007,0-.014,0-.021l.34.756a4.1,4.1,0,0,1,.528,2.274A5.726,5.726,0,0,0,280.23,242.811Z" transform="translate(-266.582 -222.255)" fill="#fff"/><rect width="39.483" height="2.913" transform="translate(0.432 10.248)" fill="tomato"/><rect width="14.995" height="0.971" transform="translate(21.791 19.148)" fill="#e0e0e0"/><rect width="14.995" height="0.971" transform="translate(21.791 23.248)" fill="#f5f5f5"/><rect width="8.846" height="0.971" transform="translate(21.684 21.198)" fill="tomato" opacity="0.2"/><rect width="6.041" height="0.971" transform="translate(21.684 25.297)" fill="#69f0ae" opacity="0.2"/><rect width="6.041" height="0.971" transform="translate(28.803 25.297)" fill="#69f0ae"/><rect width="52.105" height="1.834" transform="translate(17.907 40.562)" fill="#e0e0e0"/><rect width="17.368" height="1.834" transform="translate(17.907 44.553)" fill="#e0e0e0"/><rect width="17.368" height="1.834" transform="translate(52.644 44.553)" fill="#69f0ae"/><rect width="52.105" height="1.834" transform="translate(17.907 48.545)" fill="#e0e0e0"/><rect width="52.105" height="1.834" transform="translate(17.907 52.537)" fill="#e0e0e0"/><rect width="5.502" height="2.265" transform="translate(17.692 56.312)" fill="url(#d)"/><rect width="5.178" height="1.834" transform="translate(17.907 56.528)" fill="tomato"/><rect width="5.178" height="1.834" transform="translate(41.21 56.528)" fill="#69f0ae"/><rect width="5.178" height="1.834" transform="translate(64.834 56.528)" fill="#69f0ae"/><rect width="30.745" height="6.905" transform="translate(39.915 62.462)" fill="url(#e)"/><rect width="29.558" height="5.286" transform="translate(40.454 63.216)" fill="tomato"/><rect width="29.558" height="5.286" transform="translate(40.454 63.216)" opacity="0.2"/><rect width="19.526" height="14.887" transform="translate(51.134 8.846)" fill="url(#b)"/><rect width="18.124" height="12.946" transform="translate(51.89 9.816)" fill="tomato"/><rect width="18.124" height="12.946" transform="translate(51.89 9.816)" fill="#fff" opacity="0.2"/></g></g></svg>