<svg xmlns="http://www.w3.org/2000/svg" width="23.851" height="26.364" viewBox="0 0 23.851 26.364"><path d="M129.922,76.554a.627.627,0,0,0,.627-.627v-6.9a1.259,1.259,0,0,0-1.256-1.256h-6.275V64.627a.627.627,0,0,0-1.253,0v3.139h-6.9V64.627a.627.627,0,0,0-1.253,0v3.139h-5.649a1.259,1.259,0,0,0-1.256,1.256V89.107a1.259,1.259,0,0,0,1.256,1.256h21.339a1.259,1.259,0,0,0,1.256-1.256V80.946a.627.627,0,1,0-1.253,0v7.532a.627.627,0,0,1-.627.627H108.583a.627.627,0,0,1-.627-.627V74.041h21.339v1.883A.628.628,0,0,0,129.922,76.554Zm-21.968-3.766V69.649a.627.627,0,0,1,.627-.627h20.085a.627.627,0,0,1,.627.627v3.139ZM123.246,77.4l-5.769,5.772-2.221-2.221a.628.628,0,0,0-.888.889L117.03,84.5a.621.621,0,0,0,.444.182.628.628,0,0,0,.444-.182l6.214-6.214a.627.627,0,0,0-.886-.888Z" transform="translate(-106.7 -64)"/></svg>