<svg xmlns="http://www.w3.org/2000/svg" width="24.996" height="24.302" viewBox="0 0 24.996 24.302"><g transform="translate(-118 -118.9)"><path d="M558.608,119.273a1.73,1.73,0,0,1-.222,0c-1.205,0-2.411,0-3.616,0a3.069,3.069,0,0,0-1.028.162,1.614,1.614,0,0,0-1.091,1.218,2.846,2.846,0,0,0-.076.676c0,2.131,0,4.26,0,6.391a3.409,3.409,0,0,0,.2,1.294,1.631,1.631,0,0,0,1.183,1.005,2.484,2.484,0,0,0,.612.07h6.914a4.1,4.1,0,0,0,.787-.073,1.689,1.689,0,0,0,1.424-1.427c.013-.07-.013-.165.092-.2V121.04a.062.062,0,0,1-.016-.048c-.048-.152-.054-.311-.1-.466a1.808,1.808,0,0,0-1.357-1.231,2.128,2.128,0,0,0-.619-.067c-.041,0-.1.032-.124-.029h-2.823C558.732,119.282,558.659,119.267,558.608,119.273Zm3.13,1.291a1.277,1.277,0,0,1,.377.067.468.468,0,0,1,.339.479c0,2.372,0,4.745,0,7.117,0,.355-.273.571-.669.574-1.212.01-2.42,0-3.632,0h-3.584a1.235,1.235,0,0,1-.4-.086c-.27-.1-.3-.333-.308-.568-.006-1.189,0-2.379,0-3.568v-3.346a.652.652,0,0,1,.219-.539.742.742,0,0,1,.495-.136Q558.155,120.556,561.739,120.564Z" transform="translate(-420.791 -0.291)"/><path d="M137.888,118.935q-1.879,0-3.755,0a3.887,3.887,0,0,0-.879.1,1.75,1.75,0,0,0-.952.53,1.987,1.987,0,0,0-.469,1.351q-.01,3.311,0,6.626a3.761,3.761,0,0,0,.089.863,1.794,1.794,0,0,0,.53.967,1.935,1.935,0,0,0,1.316.476q3.525,0,7.054,0a3.274,3.274,0,0,0,.879-.1,1.7,1.7,0,0,0,1.269-1.135c.054-.168.057-.346.121-.511-.1.032-.079.127-.092.2a1.685,1.685,0,0,1-1.424,1.427,4.373,4.373,0,0,1-.787.073h-6.914a2.484,2.484,0,0,1-.612-.07,1.636,1.636,0,0,1-1.183-1.005,3.4,3.4,0,0,1-.2-1.294c-.006-2.131,0-4.26,0-6.391a2.848,2.848,0,0,1,.076-.676,1.614,1.614,0,0,1,1.091-1.218,3.151,3.151,0,0,1,1.028-.162c1.205-.006,2.411,0,3.616,0a1.73,1.73,0,0,0,.222,0c.054-.006.124.006.133-.076C138.006,118.973,137.942,118.935,137.888,118.935Zm-19.709,9.208a1.99,1.99,0,0,0,.454,1.078,1.778,1.778,0,0,0,1.364.574q3.573.014,7.149,0a2.951,2.951,0,0,0,.891-.124,1.69,1.69,0,0,0,1.24-1.684q0-3.521,0-7.038a2.365,2.365,0,0,0-.076-.6,1.813,1.813,0,0,0-1.507-1.342,2.706,2.706,0,0,0-.393-.035c-.063,0-.143.019-.165-.076h-2.823c-.041.067-.1.029-.155.029-1.3,0-2.607-.006-3.911.006a2.493,2.493,0,0,0-1.338.339,1.718,1.718,0,0,0-.752,1.047c-.025.086-.006.181-.06.26v7.39c.092.029.07.111.079.171Zm1.253-7.327a.543.543,0,0,1,.46-.517,2.07,2.07,0,0,1,.419-.032h6.946a1.361,1.361,0,0,1,.393.063.434.434,0,0,1,.343.463v7.152a.484.484,0,0,1-.368.5,1.175,1.175,0,0,1-.393.063c-1.18,0-2.357,0-3.536,0-1.2,0-2.388,0-3.584,0a.687.687,0,0,1-.549-.193.465.465,0,0,1-.13-.32Q119.427,124.411,119.432,120.816Z" transform="translate(-0.097)"/><path d="M118.129,128.344a1.862,1.862,0,0,0,.2.8,1.714,1.714,0,0,0,1.637.99c2.363.019,4.726.006,7.086.006a3.728,3.728,0,0,0,.879-.1,1.707,1.707,0,0,0,1.389-1.725c.016-2.341.006-4.681.006-7.022a2.558,2.558,0,0,0-.029-.466,1.87,1.87,0,0,0-.768-1.237,2.074,2.074,0,0,0-1.17-.362c-.073,0-.155.038-.219-.029.022.1.1.076.165.076a3.236,3.236,0,0,1,.393.035,1.813,1.813,0,0,1,1.507,1.342,2.365,2.365,0,0,1,.076.6c0,2.347,0,4.691,0,7.038a1.7,1.7,0,0,1-1.24,1.684,2.951,2.951,0,0,1-.891.124q-3.573.01-7.149,0a1.783,1.783,0,0,1-1.364-.574,2,2,0,0,1-.454-1.078c-.01-.06.013-.146-.082-.165C118.141,128.281,118.129,128.319,118.129,128.344Zm2.309,15.072a1.482,1.482,0,0,1,.206,0h6.534a3.1,3.1,0,0,0,.783-.1,1.688,1.688,0,0,0,1.316-1.687c0-.8,0-1.608,0-2.411v-4.694a1.832,1.832,0,0,0-1.7-1.894c-.362-.038-.726-.054-1.091-.063-1.094-.022-2.188.016-3.28.041-1.047.025-2.093.006-3.137.022a2.261,2.261,0,0,0-1.037.257,1.581,1.581,0,0,0-.815,1.059c-.022.089,0,.206-.117.254v7.422c.063.174.07.362.124.542a1.689,1.689,0,0,0,1.262,1.234,2.118,2.118,0,0,0,.631.067c.044,0,.1-.035.14.029h.063C120.327,143.419,120.387,143.423,120.438,143.416Zm-.362-1.288a.592.592,0,0,1-.653-.65c.013-2.325.006-4.65,0-6.978a.541.541,0,0,1,.58-.587c2.366-.076,4.729-.016,7.1-.025a1.246,1.246,0,0,1,.622.1.465.465,0,0,1,.27.435c0,1.189,0,2.379,0,3.568s-.006,2.357,0,3.536c0,.384-.247.558-.593.612a4.919,4.919,0,0,1-.809,0C124.421,142.125,122.249,142.129,120.076,142.129Z" transform="translate(-0.097 -0.291)"/><path d="M120.395,549.791q3.226,0,6.454,0a4.391,4.391,0,0,0,.888-.067,1.878,1.878,0,0,0,1.031-.542,1.71,1.71,0,0,0,.46-1.193c.006-2.357,0-4.716,0-7.073a2.28,2.28,0,0,0-.063-.587A1.836,1.836,0,0,0,128,539.02a3.709,3.709,0,0,0-1.3-.168c-.733-.016-1.465-.029-2.2.016-.6.038-1.212.009-1.817.032-.875.029-1.754.01-2.633.006a2.761,2.761,0,0,0-.6.063,1.752,1.752,0,0,0-1.288.993c-.082.181-.089.381-.165.561.117-.048.1-.165.117-.254a1.59,1.59,0,0,1,.815-1.059,2.27,2.27,0,0,1,1.037-.257c1.047-.016,2.09,0,3.137-.022,1.094-.025,2.185-.063,3.28-.041.365.006.729.022,1.091.063a1.834,1.834,0,0,1,1.7,1.893v4.694c0,.8,0,1.608,0,2.411a1.689,1.689,0,0,1-1.316,1.687,3.1,3.1,0,0,1-.783.1h-6.534c-.07,0-.136,0-.206,0-.051.006-.111,0-.117.076C120.268,549.756,120.338,549.791,120.395,549.791Z" transform="translate(0 -406.618)"/><path d="M118.812,119.377a2.522,2.522,0,0,1,1.338-.339c1.3-.013,2.607,0,3.911-.006.051,0,.114.038.155-.029a.315.315,0,0,1-.171.016c-1.421.01-2.842-.025-4.263.019a1.831,1.831,0,0,0-1.475.749,1.611,1.611,0,0,0-.308.9c.057-.076.038-.171.06-.26A1.73,1.73,0,0,1,118.812,119.377Zm22.088-.346a2.14,2.14,0,0,1,.618.067,1.813,1.813,0,0,1,1.357,1.231c.051.152.057.314.1.466v-.013a1.824,1.824,0,0,0-1.672-1.754,3,3,0,0,1-.533-.029C140.8,119.067,140.859,119.035,140.9,119.032ZM120.017,143.27a2.118,2.118,0,0,1-.631-.067,1.689,1.689,0,0,1-1.262-1.234c-.051-.181-.057-.368-.124-.542.035.168.025.343.067.511a1.739,1.739,0,0,0,1.541,1.332,3.165,3.165,0,0,1,.549.025C120.122,143.235,120.062,143.267,120.017,143.27Z" transform="translate(0 -0.097)"/><path d="M249.748,248.9a.613.613,0,0,0-.647.634v5.449a.6.6,0,0,0,.66.631.6.6,0,0,0,.669-.625c.006-1.821,0-3.644,0-5.465A.609.609,0,0,0,249.748,248.9Zm8.024.006a.62.62,0,0,0-.739.577c-.006.926,0,1.849,0,2.775v2.759a.507.507,0,0,0,.013.155.688.688,0,0,0,.745.444c.362-.086.568-.228.571-.679.006-1.76,0-3.521,0-5.281C258.363,249.2,258.22,248.991,257.773,248.908Zm-2.94,1.9a.666.666,0,0,0-.7-.479c-.393.076-.615.209-.618.663-.01,1.3,0,2.61,0,3.914a.611.611,0,0,0,.555.7.63.63,0,0,0,.777-.606v-4.06A.675.675,0,0,0,254.832,250.808Zm-.879-5.788a.606.606,0,0,0-.444.628v2.8c0,.415.127.666.574.752a.634.634,0,0,0,.758-.587c0-.5,0-1,0-1.507,0-.485-.006-.971,0-1.459C254.851,245.048,254.379,244.928,253.954,245.02Zm-3.774.082a.789.789,0,0,0-.488-.1.572.572,0,0,0-.587.58v.825c0,.285,0,.571,0,.856a.533.533,0,0,0,.155.39.728.728,0,0,0,.577.206.623.623,0,0,0,.6-.593c0-.561.006-1.12,0-1.681A.552.552,0,0,0,250.179,245.1Zm8.129.27a.641.641,0,0,0-.568-.381.628.628,0,0,0-.714.723c.016.222,0,.444,0,.666v.793a.509.509,0,0,0,.013.14.658.658,0,0,0,.758.444.6.6,0,0,0,.558-.625c.01-.5,0-1.005,0-1.507A.739.739,0,0,0,258.309,245.372Zm-16.693-9.455a.583.583,0,0,0-.488-.435.859.859,0,0,0-.127-.013c-.019,0-.048.006-.054-.025h-.913c-.013.022-.035.01-.051.01-.422,0-.844,0-1.266,0a.808.808,0,0,0-.435.111.554.554,0,0,0-.244.339c-.006.029,0,.06-.019.082v2.395c.032.006.022.035.025.054a.661.661,0,0,0,.146.349.585.585,0,0,0,.441.187c.771,0,1.545,0,2.315,0a.9.9,0,0,0,.289-.041.551.551,0,0,0,.4-.546v-2.28A.651.651,0,0,0,241.616,235.917Zm13.749-.244a.583.583,0,0,0-.488-.435.861.861,0,0,0-.127-.013c-.019,0-.048.006-.054-.025h-.913c-.013.022-.035.01-.051.01-.422,0-.844,0-1.266,0a.808.808,0,0,0-.435.111.554.554,0,0,0-.244.339c-.006.029,0,.06-.019.082v2.395c.032.006.022.035.025.054a.661.661,0,0,0,.146.349.585.585,0,0,0,.441.187c.771,0,1.545,0,2.315,0a.9.9,0,0,0,.289-.041.551.551,0,0,0,.4-.546v-2.28A.55.55,0,0,0,255.365,235.673ZM241.6,249.2a.583.583,0,0,0-.488-.435.861.861,0,0,0-.127-.013c-.019,0-.048.006-.054-.025h-.913c-.013.022-.035.01-.051.01-.422,0-.844,0-1.266,0a.808.808,0,0,0-.435.111.554.554,0,0,0-.244.339c-.006.029,0,.06-.019.082v2.395c.032.006.022.035.025.054a.661.661,0,0,0,.146.349.585.585,0,0,0,.441.187c.771,0,1.545,0,2.315,0a.9.9,0,0,0,.289-.041.551.551,0,0,0,.4-.546v-2.28A.65.65,0,0,0,241.6,249.2Z" transform="translate(-116.194 -112.611)"/></g></svg>