<svg xmlns="http://www.w3.org/2000/svg" width="22" height="22" viewBox="0 0 22 22"><path d="M12.611,20.556a.611.611,0,0,0,.611-.611V13.222h6.722a.611.611,0,0,0,0-1.222H12.611a.611.611,0,0,0-.611.611v7.333A.611.611,0,0,0,12.611,20.556Zm7.333,12.222H13.222V26.056a.611.611,0,1,0-1.222,0v7.333a.611.611,0,0,0,.611.611h7.333a.611.611,0,0,0,0-1.222ZM33.389,12H26.056a.611.611,0,1,0,0,1.222h6.722v6.722a.611.611,0,1,0,1.222,0V12.611A.611.611,0,0,0,33.389,12Zm0,13.444a.611.611,0,0,0-.611.611v6.722H26.056a.611.611,0,1,0,0,1.222h7.333A.611.611,0,0,0,34,33.389V26.056a.611.611,0,0,0-.611-.611Zm0-3.056H12.611a.611.611,0,1,0,0,1.222H33.389a.611.611,0,1,0,0-1.222Z" transform="translate(-12 -12)" fill="#2d6553"/></svg>